<?xml version="1.0" encoding="UTF-8" standalone="no"?>
<svg
  xmlns:dc="http://purl.org/dc/elements/1.1/"
  xmlns:cc="http://creativecommons.org/ns#"
  xmlns:rdf="http://www.w3.org/1999/02/22-rdf-syntax-ns#"
  xmlns:svg="http://www.w3.org/2000/svg"
  xmlns="http://www.w3.org/2000/svg"
  viewBox="0 0 1496 1496"
  height="1496"
  width="1496"
  xml:space="preserve"
  id="svg2"
  version="1.1"><metadata
     id="metadata8"><rdf:RDF><cc:Work
         rdf:about=""><dc:format>image/svg+xml</dc:format><dc:type
           rdf:resource="http://purl.org/dc/dcmitype/StillImage" /></cc:Work></rdf:RDF></metadata><defs
     id="defs6" /><g
     transform="matrix(1.3333333,0,0,-1.3333333,0,1496)"
     id="g10"><g
       transform="scale(0.1)"
       id="g12"><path
         id="path14"
         style="fill:#ffffff;fill-opacity:0;fill-rule:nonzero;stroke:none"
         d="M 11220,0 H 0 V 11220 H 11220 V 0" /><path
         id="path16"
         style="fill:#616e7d;fill-opacity:1;fill-rule:nonzero;stroke:none"
         d="m 5535.92,6160.56 46.37,-46.6 c 0.17,0 0.36,-0.15 0.36,-0.15 l 244.5,-244.54 c 63.9,125.28 102.16,259.03 111.11,393.24 7.99,120.22 -6.78,241.08 -46.3,354.98 -39.64,113.78 -104.45,220.63 -193.96,309.98 L 4650.94,7974.51 c -89.4,89.69 -196.22,154.54 -310.18,194.03 -171.03,59.47 -356.82,63.09 -534.51,17.47 -177.45,-45.64 -348.06,-141.15 -489.68,-282.61 -188.64,-188.82 -295.34,-428.63 -311.55,-669.23 -8.06,-120.23 6.77,-241.06 46.29,-354.99 39.65,-113.93 104.46,-220.78 194.15,-310.14 L 4292.47,5522 c 89.39,-89.53 196.2,-154.35 309.98,-194.02 171.04,-59.32 357.07,-62.95 534.52,-17.31 73.24,18.72 144.94,46.42 214.18,81.82 l -244.98,244.87 c -0.18,0.15 -0.18,0.3 -0.3,0.45 l -46,45.97 c -42.6,-12.44 -85.58,-20.46 -127.58,-23.3 -72.69,-4.87 -142.41,4.24 -204.87,26.11 -62.81,21.88 -118.67,56.02 -166.48,103.86 l -1047,1047.03 c -47.89,48 -82.02,103.7 -103.86,166.49 -32.93,93.78 -36.86,203.93 -8.36,315.17 28.63,111.07 89.33,221.87 183.32,315.64 125.1,125.43 280.88,191.82 426.12,201.26 72.7,4.88 142.23,-4.23 204.88,-26.11 62.75,-21.88 118.61,-56.01 166.48,-103.86 l 1047,-1047.04 c 47.81,-47.84 81.95,-103.69 103.86,-166.45 32.74,-93.81 36.8,-203.96 8.17,-315.04 -1.39,-5.67 -3.93,-11.32 -5.63,-16.98" /><path
         id="path18"
         style="fill:#616e7d;fill-opacity:1;fill-rule:nonzero;stroke:none"
         d="m 5684.14,5059.54 -291.1,291.1 c -64.09,-125.09 -102.17,-258.84 -111.3,-393.05 -8.18,-120.37 6.78,-241.08 46.3,-355.16 39.51,-113.75 104.45,-220.6 194.02,-309.99 L 6569.07,3245.41 c 89.39,-89.7 196.2,-154.51 310.17,-194 170.85,-59.5 356.82,-62.94 534.33,-17.46 177.82,45.78 348.24,141.13 489.86,282.59 188.64,188.98 295.34,428.79 311.56,669.4 8.05,120.04 -6.79,241.04 -46.43,354.83 -39.45,113.9 -104.45,220.74 -194.02,310.14 L 6927.53,5697.94 c -89.39,89.51 -196.2,154.35 -309.98,194 -171.04,59.34 -357.08,62.94 -534.52,17.31 -73.17,-18.73 -144.94,-46.43 -214.01,-81.82 l 291.12,-291.11 c 42.78,12.28 85.57,20.3 127.57,23.15 72.75,4.87 142.28,-4.26 204.92,-25.96 62.76,-22.04 118.62,-56.2 166.43,-104.04 L 7706.13,4382.46 c 47.82,-47.99 81.95,-103.7 103.86,-166.48 32.73,-93.78 36.79,-204.09 8.16,-315.2 -28.5,-111.08 -89.2,-221.86 -183.13,-315.64 -125.16,-125.25 -280.94,-191.64 -426.13,-201.26 -72.68,-4.88 -142.29,4.26 -204.86,26.14 -62.82,21.85 -118.49,56.01 -166.49,103.86 l -1047.06,1047 c -47.81,47.84 -81.95,103.7 -103.86,166.49 -32.68,93.78 -36.8,203.93 -8.17,315.19 1.39,5.66 4.11,11.32 5.69,16.98" /><path
         id="path20"
         style="fill:#aad4c8;fill-opacity:1;fill-rule:nonzero;stroke:none"
         d="m 5869.02,5827.43 -41.87,41.84 -244.5,244.54 c 0,0 -0.19,0.15 -0.36,0.15 l -46.37,46.6 -672.08,672.05 c -125.28,125.1 -328.38,125.1 -453.66,0 l -22.82,-22.82 c -125.09,-125.25 -125.09,-328.41 0,-453.66 l 672.51,-672.35 46,-45.97 c 0.12,-0.15 0.12,-0.3 0.3,-0.45 l 244.98,-244.87 41.89,-41.85 291.1,-291.1 511.09,-511.07 c 125.22,-125.28 328.21,-125.28 453.48,0 l 22.81,22.64 c 125.23,125.28 125.23,328.56 0,453.81 l -511.38,511.4 -291.12,291.11" /></g></g></svg>
